<svg xmlns="http://www.w3.org/2000/svg" xmlns:xlink="http://www.w3.org/1999/xlink" width="43.113" height="43.113" viewBox="0 0 43.113 43.113">
  <defs>
    <clipPath id="clip-path">
      <rect id="Retângulo_2164" data-name="Retângulo 2164" width="43.113" height="43.113" transform="translate(0 0)" fill="none"/>
    </clipPath>
  </defs>
  <g id="Grupo_14450" data-name="Grupo 14450" transform="translate(0 0)">
    <g id="Grupo_14449" data-name="Grupo 14449" clip-path="url(#clip-path)">
      <path id="Caminho_8917" data-name="Caminho 8917" d="M42.113,33.669a8.446,8.446,0,0,1-8.447,8.443H9.446A8.446,8.446,0,0,1,1,33.669V9.446A8.446,8.446,0,0,1,9.446,1h24.22a8.446,8.446,0,0,1,8.447,8.446Z" fill="#eef0f4"/>
      <path id="Caminho_8918" data-name="Caminho 8918" d="M42.113,33.669a8.446,8.446,0,0,1-8.447,8.443H9.446A8.446,8.446,0,0,1,1,33.669V9.446A8.446,8.446,0,0,1,9.446,1h24.22a8.446,8.446,0,0,1,8.447,8.446Z" fill="none" stroke="#636773" stroke-linecap="round" stroke-linejoin="round" stroke-width="2"/>
      <path id="Caminho_8919" data-name="Caminho 8919" d="M32.62,15.209a.862.862,0,0,0-.62-.257H14.173a7.374,7.374,0,0,0-1.141-2.23,6.722,6.722,0,0,0-1.291-1.249c0-.017.005-.033.005-.05a1.742,1.742,0,0,0-.509-1.244,1.7,1.7,0,0,0-.558-.373,1.737,1.737,0,0,0-.685-.135,1.755,1.755,0,0,0-.688.135,1.727,1.727,0,0,0-.556.373,1.779,1.779,0,0,0-.379.558,1.659,1.659,0,0,0-.142.686,1.707,1.707,0,0,0,.142.692,1.741,1.741,0,0,0,1.623,1.072,1.673,1.673,0,0,0,.685-.141c.049-.021.081-.062.127-.087a4.631,4.631,0,0,1,.8.835,5.51,5.51,0,0,1,.6,1.023,9.425,9.425,0,0,1,.446,1.212l2.587,8.639c-.051.106-.124.254-.222.44s-.208.4-.331.639-.246.482-.373.734-.244.493-.349.717-.195.423-.264.594a1.185,1.185,0,0,0-.1.369.832.832,0,0,0,.264.624.866.866,0,0,0,.631.257h1.666V30.2a1.84,1.84,0,0,0-.361.246,1.818,1.818,0,0,0-.38.557,1.742,1.742,0,0,0,0,1.373,1.815,1.815,0,0,0,.38.559A1.761,1.761,0,0,0,18.656,31a1.759,1.759,0,0,0-.194-.289l.793-1.671h6.583V30.2a1.811,1.811,0,0,0-.363.246A1.851,1.851,0,0,0,25.1,31a1.742,1.742,0,0,0,0,1.373,1.848,1.848,0,0,0,.379.559,1.741,1.741,0,0,0,.557.373,1.773,1.773,0,0,0,1.932-.373,1.845,1.845,0,0,0,.378-.559,1.73,1.73,0,0,0,0-1.373,1.775,1.775,0,0,0-.2-.289l.8-1.671H32a1.7,1.7,0,0,0-.135-.685,1.746,1.746,0,0,0-.373-.558,1.862,1.862,0,0,0-.559-.38,1.668,1.668,0,0,0-.684-.141H15.912l.883-1.764h12.57a.788.788,0,0,0,.527-.165,1.17,1.17,0,0,0,.319-.459,10.8,10.8,0,0,0,.411-1.27c.109-.428.231-.854.362-1.279.049-.173.13-.438.244-.8s.243-.764.387-1.214.288-.916.433-1.4.285-.941.412-1.366.228-.8.305-1.115a3.429,3.429,0,0,0,.118-.625.825.825,0,0,0-.263-.613M17.039,23.762h-.232l-.8-2.646h1.029Zm0-4.387H15.5l-.8-2.659h2.34Zm3.516,4.387H17.909V21.116h2.646Zm0-4.387H17.909V16.716h2.646Zm3.53,4.387H21.439V21.116h2.646Zm0-4.387H21.439V16.716h2.646ZM27.6,23.762H24.954V21.116H27.6Zm0-4.387H24.954V16.716H27.6Zm1.1,4.387h-.22V21.116H29.5Zm1.323-4.387H28.484V16.716h2.34Z" fill="#636773"/>
    </g>
  </g>
</svg>
